<svg width="285" height="60" viewBox="0 0 285 60" fill="none" xmlns="http://www.w3.org/2000/svg">
<path d="M161.631 26.8362V28.4676C161.631 31.4199 161.194 33.8801 160.319 35.8482C159.444 37.8164 158.338 39.3961 157 40.5873C155.713 41.7268 154.272 42.5296 152.677 42.9957C151.082 43.4618 149.564 43.6949 148.123 43.6949C146.476 43.6949 144.932 43.4877 143.491 43.0734C142.102 42.659 141.047 42.167 140.326 41.5973L140.944 58.9999L136.158 59.466V17.2026L136.621 13.6288C140.429 12.7483 143.723 12.3081 146.502 12.3081C151.288 12.3081 154.941 13.5253 157.463 15.9595C160.036 18.342 161.426 21.9676 161.631 26.8362ZM139.554 19.0671L139.863 34.4498C139.914 34.7088 140.172 35.0195 140.635 35.3821C141.15 35.7446 141.793 36.1072 142.565 36.4697C143.388 36.7805 144.289 37.0654 145.266 37.3243C146.244 37.5315 147.248 37.6351 148.277 37.6351C149.255 37.6351 150.233 37.4797 151.21 37.1689C152.24 36.8064 153.14 36.2108 153.912 35.3821C154.735 34.5534 155.404 33.4398 155.919 32.0414C156.434 30.643 156.691 28.9079 156.691 26.8362C156.691 25.2306 156.382 23.8321 155.765 22.6409C155.199 21.3978 154.401 20.3879 153.372 19.611C152.394 18.7823 151.262 18.1867 149.975 17.8241C148.74 17.4098 147.454 17.2026 146.116 17.2026C144.932 17.2026 143.774 17.358 142.642 17.6687C141.51 17.9795 140.481 18.4456 139.554 19.0671Z" fill="white"/>
<path d="M165.8 29.3222C165.8 26.4736 166.212 24.0911 167.035 22.1747C167.858 20.2066 168.888 18.6528 170.123 17.5133C171.409 16.3221 172.824 15.4934 174.368 15.0273C175.912 14.5093 177.404 14.2504 178.845 14.2504C180.904 14.2504 182.757 14.5611 184.403 15.1826C186.05 15.7524 187.44 16.7364 188.572 18.1349C189.755 19.4815 190.656 21.2943 191.274 23.5732C191.891 25.8521 192.2 28.6489 192.2 31.9637L170.74 34.0613C170.895 35.5116 171.281 36.7546 171.898 37.7905C172.567 38.7745 173.39 39.5773 174.368 40.1989C175.346 40.8204 176.401 41.2606 177.533 41.5196C178.665 41.7786 179.823 41.908 181.007 41.908C182.962 41.908 184.841 41.6232 186.642 41.0534C188.443 40.4837 189.781 39.7845 190.656 38.9558L192.045 42.6849C191.685 43.2029 191.145 43.7208 190.424 44.2387C189.704 44.7567 188.855 45.1969 187.877 45.5595C186.899 45.9738 185.793 46.2846 184.558 46.4918C183.374 46.7507 182.139 46.8802 180.852 46.8802C179.051 46.8802 177.25 46.5953 175.449 46.0256C173.648 45.4559 172.027 44.4977 170.586 43.1511C169.145 41.8044 167.987 40.0176 167.112 37.7905C166.237 35.5116 165.8 32.6888 165.8 29.3222ZM170.277 29.4776L187.259 27.6131C187.259 25.0752 186.59 23.0552 185.252 21.5532C183.914 19.9994 181.753 19.2225 178.768 19.2225C177.327 19.2743 176.066 19.5851 174.986 20.1548C173.957 20.7245 173.082 21.4496 172.361 22.3301C171.641 23.1588 171.1 24.117 170.74 25.2047C170.38 26.2923 170.2 27.4059 170.2 28.5453C170.2 28.9597 170.226 29.2704 170.277 29.4776Z" fill="white"/>
<path d="M196.986 29.3222C196.986 26.4736 197.397 24.0911 198.221 22.1747C199.044 20.2066 200.074 18.6528 201.309 17.5133C202.595 16.3221 204.01 15.4934 205.554 15.0273C207.098 14.5093 208.59 14.2504 210.031 14.2504C212.09 14.2504 213.943 14.5611 215.589 15.1826C217.236 15.7524 218.626 16.7364 219.758 18.1349C220.941 19.4815 221.842 21.2943 222.459 23.5732C223.077 25.8521 223.386 28.6489 223.386 31.9637L201.926 34.0613C202.081 35.5116 202.466 36.7546 203.084 37.7905C203.753 38.7745 204.576 39.5773 205.554 40.1989C206.532 40.8204 207.587 41.2606 208.719 41.5196C209.851 41.7786 211.009 41.908 212.193 41.908C214.148 41.908 216.027 41.6232 217.828 41.0534C219.629 40.4837 220.967 39.7845 221.842 38.9558L223.231 42.6849C222.871 43.2029 222.331 43.7208 221.61 44.2387C220.89 44.7567 220.041 45.1969 219.063 45.5595C218.085 45.9738 216.979 46.2846 215.744 46.4918C214.56 46.7507 213.325 46.8802 212.038 46.8802C210.237 46.8802 208.436 46.5953 206.635 46.0256C204.834 45.4559 203.213 44.4977 201.772 43.1511C200.331 41.8044 199.173 40.0176 198.298 37.7905C197.423 35.5116 196.986 32.6888 196.986 29.3222ZM201.463 29.4776L218.445 27.6131C218.445 25.0752 217.776 23.0552 216.438 21.5532C215.1 19.9994 212.939 19.2225 209.954 19.2225C208.513 19.2743 207.252 19.5851 206.172 20.1548C205.143 20.7245 204.268 21.4496 203.547 22.3301C202.827 23.1588 202.286 24.117 201.926 25.2047C201.566 26.2923 201.386 27.4059 201.386 28.5453C201.386 28.9597 201.412 29.2704 201.463 29.4776Z" fill="white"/>
<path d="M255.652 26.8362V28.4676C255.652 31.4199 255.215 33.8801 254.34 35.8482C253.465 37.8164 252.359 39.3961 251.021 40.5873C249.734 41.7268 248.293 42.5296 246.698 42.9957C245.103 43.4618 243.585 43.6949 242.144 43.6949C240.497 43.6949 238.953 43.4877 237.512 43.0734C236.123 42.659 235.068 42.167 234.347 41.5973L234.965 58.9999L230.179 59.466V17.2026L230.642 13.6288C234.45 12.7483 237.744 12.3081 240.523 12.3081C245.309 12.3081 248.962 13.5253 251.484 15.9595C254.057 18.342 255.447 21.9676 255.652 26.8362ZM233.575 19.0671L233.884 34.4498C233.935 34.7088 234.193 35.0195 234.656 35.3821C235.171 35.7446 235.814 36.1072 236.586 36.4697C237.409 36.7805 238.31 37.0654 239.288 37.3243C240.265 37.5315 241.269 37.6351 242.298 37.6351C243.276 37.6351 244.254 37.4797 245.231 37.1689C246.261 36.8064 247.161 36.2108 247.933 35.3821C248.757 34.5534 249.426 33.4398 249.94 32.0414C250.455 30.643 250.712 28.9079 250.712 26.8362C250.712 25.2306 250.403 23.8321 249.786 22.6409C249.22 21.3978 248.422 20.3879 247.393 19.611C246.415 18.7823 245.283 18.1867 243.996 17.8241C242.761 17.4098 241.475 17.2026 240.137 17.2026C238.953 17.2026 237.795 17.358 236.663 17.6687C235.531 17.9795 234.502 18.4456 233.575 19.0671Z" fill="white"/>
<path d="M281.589 15.6488L280.509 20.3102C280.097 20.103 279.531 19.8958 278.81 19.6887C278.141 19.4297 277.369 19.1966 276.495 18.9895C275.671 18.7823 274.771 18.6269 273.793 18.5233C272.866 18.3679 271.992 18.2902 271.168 18.2902C269.624 18.2902 268.286 18.5233 267.154 18.9895C266.074 19.4556 265.533 20.2843 265.533 21.4755C265.533 22.356 265.996 23.107 266.923 23.7286C267.849 24.3501 268.93 24.8939 270.165 25.36C271.451 25.7744 272.712 26.111 273.947 26.37C275.234 26.629 276.237 26.8362 276.958 26.9915C278.502 27.4577 279.737 28.0792 280.663 28.8561C281.641 29.5812 282.387 30.384 282.902 31.2645C283.468 32.0932 283.854 32.9737 284.059 33.906C284.265 34.8382 284.368 35.7446 284.368 36.6251C284.368 38.4897 283.931 40.0694 283.056 41.3642C282.233 42.6072 281.152 43.6431 279.814 44.4718C278.527 45.2487 277.061 45.8184 275.414 46.181C273.819 46.5435 272.223 46.7248 270.628 46.7248C268.158 46.7248 265.79 46.3882 263.526 45.7149C261.313 45.0415 259.564 44.1352 258.277 42.9957L260.13 37.7128C260.747 38.2307 261.468 38.7227 262.291 39.1889C263.166 39.6032 264.118 39.9917 265.147 40.3542C266.176 40.665 267.257 40.924 268.389 41.1311C269.521 41.2865 270.628 41.3642 271.709 41.3642C273.561 41.3642 275.208 41.0017 276.649 40.2765C278.09 39.5514 278.965 38.2825 279.273 36.4697C279.273 36.159 279.222 35.7705 279.119 35.3044C279.068 34.7864 278.888 34.2944 278.579 33.8283C278.321 33.3621 277.884 32.9219 277.266 32.5075C276.7 32.0932 275.877 31.8083 274.796 31.6529C272.686 31.3422 270.731 30.9278 268.93 30.4099C267.18 29.892 265.662 29.2445 264.375 28.4676C263.089 27.6907 262.059 26.7585 261.288 25.6708C260.567 24.5313 260.207 23.2106 260.207 21.7086C260.207 18.8082 261.159 16.7105 263.063 15.4157C264.967 14.1209 267.772 13.4735 271.477 13.4735C273.433 13.4735 275.311 13.6806 277.112 14.095C278.965 14.5093 280.457 15.0273 281.589 15.6488Z" fill="white"/>
<path d="M18.345 12.8628C14.6236 12.8628 11.9827 14.1273 9.82188 16.0542V13.5252H0.458496V55.6164H9.82188V43.2118C11.9226 45.0786 14.5636 46.1624 18.1049 46.1624C25.9077 46.1624 33.8306 40.3817 33.8306 29.5427C33.8306 18.764 26.0277 12.8628 18.345 12.8628ZM16.8444 36.7687C12.0427 36.7687 9.70184 33.1557 9.70184 29.6029C9.70184 25.9297 12.1027 22.3168 16.8444 22.3168C20.8058 22.3168 24.047 25.5684 24.047 29.5427C24.047 33.517 20.8058 36.7687 16.8444 36.7687Z" fill="white"/>
<path d="M38.8569 45.4399H48.2203V13.5252H38.8569V45.4399ZM38.6168 5.69702C38.6168 8.46698 40.7776 10.695 43.5386 10.695C46.2996 10.695 48.5204 8.46698 48.5204 5.69702C48.5204 2.98728 46.2996 0.759277 43.5386 0.759277C40.7776 0.759277 38.6168 2.98728 38.6168 5.69702Z" fill="white"/>
<path d="M72.2079 45.4399H82.3515L71.9678 29.1212L81.8713 13.5252H71.7277L66.9259 21.1124L62.1242 13.5252H51.9805L61.8241 29.1212L51.5004 45.4399H61.584L66.9259 37.0698L72.2079 45.4399Z" fill="white"/>
<path d="M104.367 26.833H91.2225C92.423 23.2802 95.1239 21.5339 97.7649 21.5339C100.466 21.5339 103.167 23.2802 104.367 26.833ZM92.0028 33.7579H113.731C114.091 32.3729 114.271 30.9879 114.271 29.5427C114.271 19.1855 105.808 13.0434 97.7049 13.0434C88.1014 13.0434 81.319 20.6909 81.319 29.6029C81.319 38.4548 88.9417 46.1624 97.7649 46.1624C102.026 46.1624 106.228 44.5366 109.469 41.2849L103.827 35.6246C102.507 36.9493 100.586 37.6719 98.6052 37.6719C95.9643 37.6719 93.2633 36.4074 92.0028 33.7579Z" fill="white"/>
<path d="M119.095 45.4399H128.458V3.4088H119.095V45.4399Z" fill="white"/>
</svg>
