<svg width="295" height="61" viewBox="0 0 295 61" fill="none" xmlns="http://www.w3.org/2000/svg">
<path d="M167.469 27.0956V28.7908C167.469 31.8583 167.014 34.4146 166.105 36.4596C165.196 38.5047 164.047 40.1461 162.656 41.3839C161.319 42.5678 159.822 43.402 158.165 43.8863C156.507 44.3707 154.93 44.6129 153.432 44.6129C151.721 44.6129 150.117 44.3976 148.62 43.9671C147.176 43.5365 146.08 43.0253 145.331 42.4333L145.973 60.5157L141 61V17.0857L141.481 13.3723C145.438 12.4574 148.86 12 151.748 12C156.721 12 160.517 13.2647 163.138 15.7941C165.811 18.2696 167.255 22.0368 167.469 27.0956ZM144.529 19.0231L144.85 35.0066C144.903 35.2757 145.171 35.5986 145.652 35.9753C146.187 36.352 146.855 36.7287 147.657 37.1054C148.513 37.4283 149.449 37.7243 150.465 37.9934C151.481 38.2087 152.523 38.3163 153.593 38.3163C154.609 38.3163 155.625 38.1549 156.641 37.832C157.71 37.4552 158.646 36.8364 159.448 35.9753C160.303 35.1142 160.999 33.9572 161.533 32.5041C162.068 31.0511 162.335 29.2482 162.335 27.0956C162.335 25.4272 162.015 23.9742 161.373 22.7364C160.785 21.4448 159.956 20.3954 158.886 19.5881C157.87 18.7271 156.694 18.1082 155.357 17.7315C154.074 17.3009 152.737 17.0857 151.347 17.0857C150.117 17.0857 148.914 17.2471 147.738 17.57C146.561 17.8929 145.492 18.3773 144.529 19.0231Z" fill="black"/>
<path d="M171.8 29.6787C171.8 26.7188 172.228 24.2433 173.083 22.2521C173.939 20.207 175.008 18.5925 176.292 17.4086C177.628 16.1708 179.099 15.3097 180.703 14.8254C182.307 14.2872 183.858 14.0181 185.355 14.0181C187.494 14.0181 189.419 14.341 191.13 14.9868C192.841 15.5788 194.285 16.6013 195.461 18.0544C196.691 19.4536 197.627 21.3372 198.269 23.7051C198.91 26.073 199.231 28.9791 199.231 32.4234L176.933 34.603C177.094 36.1098 177.495 37.4014 178.136 38.4778C178.832 39.5003 179.687 40.3344 180.703 40.9802C181.719 41.626 182.815 42.0835 183.992 42.3526C185.168 42.6216 186.371 42.7562 187.601 42.7562C189.633 42.7562 191.585 42.4602 193.456 41.8682C195.328 41.2762 196.718 40.5497 197.627 39.6886L199.071 43.5634C198.697 44.1016 198.135 44.6398 197.386 45.1779C196.638 45.7161 195.756 46.1735 194.74 46.5502C193.724 46.9808 192.574 47.3037 191.291 47.5189C190.061 47.788 188.777 47.9226 187.441 47.9226C185.569 47.9226 183.698 47.6266 181.826 47.0346C179.955 46.4426 178.27 45.447 176.773 44.0478C175.276 42.6485 174.073 40.7919 173.164 38.4778C172.255 36.1098 171.8 33.1768 171.8 29.6787ZM176.452 29.8402L194.098 27.9028C194.098 25.2658 193.403 23.1669 192.013 21.6063C190.622 19.9918 188.376 19.1845 185.275 19.1845C183.778 19.2383 182.468 19.5612 181.345 20.1532C180.275 20.7452 179.366 21.4986 178.618 22.4135C177.869 23.2746 177.308 24.2702 176.933 25.4003C176.559 26.5305 176.372 27.6875 176.372 28.8715C176.372 29.302 176.399 29.6249 176.452 29.8402Z" fill="black"/>
<path d="M204.204 29.6787C204.204 26.7188 204.632 24.2433 205.488 22.2521C206.343 20.207 207.412 18.5925 208.696 17.4086C210.033 16.1708 211.503 15.3097 213.107 14.8254C214.711 14.2872 216.262 14.0181 217.759 14.0181C219.898 14.0181 221.823 14.341 223.534 14.9868C225.245 15.5788 226.689 16.6013 227.866 18.0544C229.095 19.4536 230.031 21.3372 230.673 23.7051C231.315 26.073 231.635 28.9791 231.635 32.4234L209.338 34.603C209.498 36.1098 209.899 37.4014 210.541 38.4778C211.236 39.5003 212.091 40.3344 213.107 40.9802C214.123 41.626 215.219 42.0835 216.396 42.3526C217.572 42.6216 218.775 42.7562 220.005 42.7562C222.037 42.7562 223.989 42.4602 225.86 41.8682C227.732 41.2762 229.122 40.5497 230.031 39.6886L231.475 43.5634C231.101 44.1016 230.539 44.6398 229.791 45.1779C229.042 45.7161 228.16 46.1735 227.144 46.5502C226.128 46.9808 224.978 47.3037 223.695 47.5189C222.465 47.788 221.182 47.9226 219.845 47.9226C217.973 47.9226 216.102 47.6266 214.23 47.0346C212.359 46.4426 210.674 45.447 209.177 44.0478C207.68 42.6485 206.477 40.7919 205.568 38.4778C204.659 36.1098 204.204 33.1768 204.204 29.6787ZM208.856 29.8402L226.502 27.9028C226.502 25.2658 225.807 23.1669 224.417 21.6063C223.026 19.9918 220.781 19.1845 217.679 19.1845C216.182 19.2383 214.872 19.5612 213.749 20.1532C212.68 20.7452 211.77 21.4986 211.022 22.4135C210.273 23.2746 209.712 24.2702 209.338 25.4003C208.963 26.5305 208.776 27.6875 208.776 28.8715C208.776 29.302 208.803 29.6249 208.856 29.8402Z" fill="black"/>
<path d="M265.163 27.0956V28.7908C265.163 31.8583 264.708 34.4146 263.799 36.4596C262.89 38.5047 261.74 40.1461 260.35 41.3839C259.013 42.5678 257.516 43.402 255.858 43.8863C254.201 44.3707 252.623 44.6129 251.126 44.6129C249.415 44.6129 247.811 44.3976 246.314 43.9671C244.87 43.5365 243.774 43.0253 243.025 42.4333L243.667 60.5157L238.694 61V17.0857L239.175 13.3723C243.132 12.4574 246.554 12 249.442 12C254.415 12 258.211 13.2647 260.831 15.7941C263.505 18.2696 264.949 22.0368 265.163 27.0956ZM242.223 19.0231L242.544 35.0066C242.597 35.2757 242.865 35.5986 243.346 35.9753C243.881 36.352 244.549 36.7287 245.351 37.1054C246.207 37.4283 247.142 37.7243 248.158 37.9934C249.174 38.2087 250.217 38.3163 251.286 38.3163C252.302 38.3163 253.318 38.1549 254.334 37.832C255.404 37.4552 256.34 36.8364 257.142 35.9753C257.997 35.1142 258.692 33.9572 259.227 32.5041C259.762 31.0511 260.029 29.2482 260.029 27.0956C260.029 25.4272 259.708 23.9742 259.067 22.7364C258.478 21.4448 257.65 20.3954 256.58 19.5881C255.564 18.7271 254.388 18.1082 253.051 17.7315C251.768 17.3009 250.431 17.0857 249.041 17.0857C247.811 17.0857 246.608 17.2471 245.431 17.57C244.255 17.8929 243.185 18.3773 242.223 19.0231Z" fill="black"/>
<path d="M292.113 15.4712L290.99 20.3147C290.562 20.0994 289.974 19.8841 289.225 19.6689C288.53 19.3998 287.728 19.1576 286.819 18.9423C285.963 18.7271 285.027 18.5656 284.011 18.458C283.049 18.2965 282.14 18.2158 281.284 18.2158C279.68 18.2158 278.29 18.458 277.114 18.9423C275.991 19.4267 275.429 20.2878 275.429 21.5255C275.429 22.4404 275.91 23.2208 276.873 23.8666C277.835 24.5124 278.958 25.0774 280.242 25.5618C281.578 25.9923 282.889 26.3421 284.172 26.6112C285.509 26.8803 286.551 27.0956 287.3 27.257C288.904 27.7414 290.188 28.3871 291.15 29.1944C292.166 29.9478 292.941 30.782 293.476 31.6969C294.064 32.5579 294.465 33.4728 294.679 34.4415C294.893 35.4102 295 36.352 295 37.2669C295 39.2043 294.545 40.8457 293.636 42.1911C292.781 43.4827 291.658 44.559 290.268 45.4201C288.931 46.2273 287.407 46.8193 285.696 47.196C284.038 47.5728 282.381 47.7611 280.723 47.7611C278.156 47.7611 275.697 47.4113 273.344 46.7117C271.044 46.0121 269.226 45.0703 267.89 43.8863L269.815 38.397C270.456 38.9352 271.205 39.4465 272.06 39.9308C272.969 40.3613 273.959 40.765 275.028 41.1417C276.098 41.4646 277.22 41.7337 278.397 41.9489C279.573 42.1104 280.723 42.1911 281.846 42.1911C283.771 42.1911 285.482 41.8144 286.979 41.061C288.476 40.3075 289.385 38.989 289.706 37.1054C289.706 36.7825 289.653 36.3789 289.546 35.8946C289.492 35.3564 289.305 34.8451 288.984 34.3608C288.717 33.8764 288.262 33.419 287.621 32.9885C287.033 32.5579 286.177 32.2619 285.054 32.1005C282.862 31.7776 280.83 31.3471 278.958 30.8089C277.14 30.2707 275.563 29.598 274.226 28.7908C272.889 27.9835 271.82 27.0148 271.018 25.8847C270.269 24.7007 269.895 23.3284 269.895 21.7677C269.895 18.754 270.884 16.5744 272.863 15.229C274.841 13.8836 277.755 13.2109 281.605 13.2109C283.637 13.2109 285.589 13.4261 287.46 13.8567C289.385 14.2872 290.936 14.8254 292.113 15.4712Z" fill="black"/>
<path d="M18.5852 12.5763C14.7184 12.5763 11.9743 13.8902 9.72914 15.8924V13.2645H0V57H9.72914V44.1109C11.912 46.0505 14.6561 47.1767 18.3357 47.1767C26.4433 47.1767 34.6757 41.1701 34.6757 29.9078C34.6757 18.708 26.568 12.5763 18.5852 12.5763ZM17.026 37.416C12.0367 37.416 9.60441 33.6619 9.60441 29.9704C9.60441 26.1537 12.0991 22.3996 17.026 22.3996C21.1422 22.3996 24.5099 25.7783 24.5099 29.9078C24.5099 34.0373 21.1422 37.416 17.026 37.416Z" fill="black"/>
<path d="M39.8983 46.4259H49.6275V13.2645H39.8983V46.4259ZM39.6489 5.13063C39.6489 8.00878 41.8941 10.3238 44.7629 10.3238C47.6318 10.3238 49.9393 8.00878 49.9393 5.13063C49.9393 2.31504 47.6318 0 44.7629 0C41.8941 0 39.6489 2.31504 39.6489 5.13063Z" fill="black"/>
<path d="M74.5521 46.4259H85.092L74.3026 29.4698L84.593 13.2645H74.0531L69.0638 21.1482L64.0745 13.2645H53.5346L63.7627 29.4698L53.0357 46.4259H63.5132L69.0638 37.7289L74.5521 46.4259Z" fill="black"/>
<path d="M107.968 27.0922H94.3095C95.5568 23.4007 98.3633 21.5862 101.107 21.5862C103.914 21.5862 106.72 23.4007 107.968 27.0922ZM95.1203 34.2876H117.697C118.071 32.8485 118.258 31.4094 118.258 29.9078C118.258 19.146 109.465 12.764 101.045 12.764C91.0665 12.764 84.0191 20.7102 84.0191 29.9704C84.0191 39.1679 91.9396 47.1767 101.107 47.1767C105.535 47.1767 109.901 45.4874 113.269 42.1087L107.406 36.2272C106.034 37.6037 104.039 38.3546 101.981 38.3546C99.2365 38.3546 96.43 37.0406 95.1203 34.2876Z" fill="black"/>
<path d="M123.271 46.4259H133V2.75302H123.271V46.4259Z" fill="black"/>
</svg>
